<svg xmlns="http://www.w3.org/2000/svg" xmlns:xlink="http://www.w3.org/1999/xlink" width="500" zoomAndPan="magnify" viewBox="0 0 375 374.999991" height="500" preserveAspectRatio="xMidYMid meet" version="1.0"><defs><g/></defs><rect x="-37.5" width="450" fill="#ffffff" y="-37.499999" height="449.999989" fill-opacity="1"/><rect x="-37.5" width="450" fill="#ffffff" y="-37.499999" height="449.999989" fill-opacity="1"/><g fill="#ff00ff" fill-opacity="1"><g transform="translate(34.023577, 189.020758)"><g><path d="M 44.546875 0 L 18.421875 0 C 16.191406 0 14.578125 -0.492188 13.578125 -1.484375 C 12.585938 -2.484375 12.09375 -4.09375 12.09375 -6.3125 L 12.09375 -119.953125 C 12.09375 -122.171875 12.585938 -123.773438 13.578125 -124.765625 C 14.578125 -125.765625 16.191406 -126.265625 18.421875 -126.265625 L 46.65625 -126.265625 C 48.519531 -126.265625 50.066406 -125.851562 51.296875 -125.03125 C 52.523438 -124.21875 53.664062 -122.878906 54.71875 -121.015625 L 70.5 -92.421875 C 71.082031 -91.367188 71.578125 -90.609375 71.984375 -90.140625 C 72.398438 -89.671875 72.957031 -89.4375 73.65625 -89.4375 L 75.234375 -89.4375 C 75.929688 -89.4375 76.484375 -89.671875 76.890625 -90.140625 C 77.304688 -90.609375 77.804688 -91.367188 78.390625 -92.421875 L 94 -121.015625 C 95.050781 -122.878906 96.191406 -124.21875 97.421875 -125.03125 C 98.648438 -125.851562 100.195312 -126.265625 102.0625 -126.265625 L 130.484375 -126.265625 C 132.703125 -126.265625 134.304688 -125.765625 135.296875 -124.765625 C 136.296875 -123.773438 136.796875 -122.171875 136.796875 -119.953125 L 136.796875 -6.3125 C 136.796875 -4.09375 136.296875 -2.484375 135.296875 -1.484375 C 134.304688 -0.492188 132.703125 0 130.484375 0 L 103.46875 0 C 101.25 0 99.640625 -0.492188 98.640625 -1.484375 C 97.648438 -2.484375 97.15625 -4.09375 97.15625 -6.3125 L 97.15625 -68.046875 L 86.8125 -48.921875 C 85.757812 -46.941406 84.5 -45.507812 83.03125 -44.625 C 81.570312 -43.75 79.734375 -43.3125 77.515625 -43.3125 L 70.5 -43.3125 C 68.28125 -43.3125 66.4375 -43.75 64.96875 -44.625 C 63.507812 -45.507812 62.253906 -46.941406 61.203125 -48.921875 L 50.859375 -68.046875 L 50.859375 -6.3125 C 50.859375 -4.09375 50.359375 -2.484375 49.359375 -1.484375 C 48.367188 -0.492188 46.765625 0 44.546875 0 Z M 44.546875 0 "/></g></g></g><g fill="#ff00ff" fill-opacity="1"><g transform="translate(182.922315, 189.020758)"><g><path d="M 44.546875 0 L 18.421875 0 C 16.191406 0 14.578125 -0.492188 13.578125 -1.484375 C 12.585938 -2.484375 12.09375 -4.09375 12.09375 -6.3125 L 12.09375 -119.953125 C 12.09375 -122.171875 12.585938 -123.773438 13.578125 -124.765625 C 14.578125 -125.765625 16.191406 -126.265625 18.421875 -126.265625 L 46.65625 -126.265625 C 48.519531 -126.265625 50.066406 -125.851562 51.296875 -125.03125 C 52.523438 -124.21875 53.664062 -122.878906 54.71875 -121.015625 L 70.5 -92.421875 C 71.082031 -91.367188 71.578125 -90.609375 71.984375 -90.140625 C 72.398438 -89.671875 72.957031 -89.4375 73.65625 -89.4375 L 75.234375 -89.4375 C 75.929688 -89.4375 76.484375 -89.671875 76.890625 -90.140625 C 77.304688 -90.609375 77.804688 -91.367188 78.390625 -92.421875 L 94 -121.015625 C 95.050781 -122.878906 96.191406 -124.21875 97.421875 -125.03125 C 98.648438 -125.851562 100.195312 -126.265625 102.0625 -126.265625 L 130.484375 -126.265625 C 132.703125 -126.265625 134.304688 -125.765625 135.296875 -124.765625 C 136.296875 -123.773438 136.796875 -122.171875 136.796875 -119.953125 L 136.796875 -6.3125 C 136.796875 -4.09375 136.296875 -2.484375 135.296875 -1.484375 C 134.304688 -0.492188 132.703125 0 130.484375 0 L 103.46875 0 C 101.25 0 99.640625 -0.492188 98.640625 -1.484375 C 97.648438 -2.484375 97.15625 -4.09375 97.15625 -6.3125 L 97.15625 -68.046875 L 86.8125 -48.921875 C 85.757812 -46.941406 84.5 -45.507812 83.03125 -44.625 C 81.570312 -43.75 79.734375 -43.3125 77.515625 -43.3125 L 70.5 -43.3125 C 68.28125 -43.3125 66.4375 -43.75 64.96875 -44.625 C 63.507812 -45.507812 62.253906 -46.941406 61.203125 -48.921875 L 50.859375 -68.046875 L 50.859375 -6.3125 C 50.859375 -4.09375 50.359375 -2.484375 49.359375 -1.484375 C 48.367188 -0.492188 46.765625 0 44.546875 0 Z M 44.546875 0 "/></g></g></g><g fill="#00ffff" fill-opacity="1"><g transform="translate(43.162519, 180.498562)"><g><path d="M 44.546875 0 L 18.421875 0 C 16.191406 0 14.578125 -0.492188 13.578125 -1.484375 C 12.585938 -2.484375 12.09375 -4.09375 12.09375 -6.3125 L 12.09375 -119.953125 C 12.09375 -122.171875 12.585938 -123.773438 13.578125 -124.765625 C 14.578125 -125.765625 16.191406 -126.265625 18.421875 -126.265625 L 46.65625 -126.265625 C 48.519531 -126.265625 50.066406 -125.851562 51.296875 -125.03125 C 52.523438 -124.21875 53.664062 -122.878906 54.71875 -121.015625 L 70.5 -92.421875 C 71.082031 -91.367188 71.578125 -90.609375 71.984375 -90.140625 C 72.398438 -89.671875 72.957031 -89.4375 73.65625 -89.4375 L 75.234375 -89.4375 C 75.929688 -89.4375 76.484375 -89.671875 76.890625 -90.140625 C 77.304688 -90.609375 77.804688 -91.367188 78.390625 -92.421875 L 94 -121.015625 C 95.050781 -122.878906 96.191406 -124.21875 97.421875 -125.03125 C 98.648438 -125.851562 100.195312 -126.265625 102.0625 -126.265625 L 130.484375 -126.265625 C 132.703125 -126.265625 134.304688 -125.765625 135.296875 -124.765625 C 136.296875 -123.773438 136.796875 -122.171875 136.796875 -119.953125 L 136.796875 -6.3125 C 136.796875 -4.09375 136.296875 -2.484375 135.296875 -1.484375 C 134.304688 -0.492188 132.703125 0 130.484375 0 L 103.46875 0 C 101.25 0 99.640625 -0.492188 98.640625 -1.484375 C 97.648438 -2.484375 97.15625 -4.09375 97.15625 -6.3125 L 97.15625 -68.046875 L 86.8125 -48.921875 C 85.757812 -46.941406 84.5 -45.507812 83.03125 -44.625 C 81.570312 -43.75 79.734375 -43.3125 77.515625 -43.3125 L 70.5 -43.3125 C 68.28125 -43.3125 66.4375 -43.75 64.96875 -44.625 C 63.507812 -45.507812 62.253906 -46.941406 61.203125 -48.921875 L 50.859375 -68.046875 L 50.859375 -6.3125 C 50.859375 -4.09375 50.359375 -2.484375 49.359375 -1.484375 C 48.367188 -0.492188 46.765625 0 44.546875 0 Z M 44.546875 0 "/></g></g></g><g fill="#00ffff" fill-opacity="1"><g transform="translate(192.061257, 180.498562)"><g><path d="M 44.546875 0 L 18.421875 0 C 16.191406 0 14.578125 -0.492188 13.578125 -1.484375 C 12.585938 -2.484375 12.09375 -4.09375 12.09375 -6.3125 L 12.09375 -119.953125 C 12.09375 -122.171875 12.585938 -123.773438 13.578125 -124.765625 C 14.578125 -125.765625 16.191406 -126.265625 18.421875 -126.265625 L 46.65625 -126.265625 C 48.519531 -126.265625 50.066406 -125.851562 51.296875 -125.03125 C 52.523438 -124.21875 53.664062 -122.878906 54.71875 -121.015625 L 70.5 -92.421875 C 71.082031 -91.367188 71.578125 -90.609375 71.984375 -90.140625 C 72.398438 -89.671875 72.957031 -89.4375 73.65625 -89.4375 L 75.234375 -89.4375 C 75.929688 -89.4375 76.484375 -89.671875 76.890625 -90.140625 C 77.304688 -90.609375 77.804688 -91.367188 78.390625 -92.421875 L 94 -121.015625 C 95.050781 -122.878906 96.191406 -124.21875 97.421875 -125.03125 C 98.648438 -125.851562 100.195312 -126.265625 102.0625 -126.265625 L 130.484375 -126.265625 C 132.703125 -126.265625 134.304688 -125.765625 135.296875 -124.765625 C 136.296875 -123.773438 136.796875 -122.171875 136.796875 -119.953125 L 136.796875 -6.3125 C 136.796875 -4.09375 136.296875 -2.484375 135.296875 -1.484375 C 134.304688 -0.492188 132.703125 0 130.484375 0 L 103.46875 0 C 101.25 0 99.640625 -0.492188 98.640625 -1.484375 C 97.648438 -2.484375 97.15625 -4.09375 97.15625 -6.3125 L 97.15625 -68.046875 L 86.8125 -48.921875 C 85.757812 -46.941406 84.5 -45.507812 83.03125 -44.625 C 81.570312 -43.75 79.734375 -43.3125 77.515625 -43.3125 L 70.5 -43.3125 C 68.28125 -43.3125 66.4375 -43.75 64.96875 -44.625 C 63.507812 -45.507812 62.253906 -46.941406 61.203125 -48.921875 L 50.859375 -68.046875 L 50.859375 -6.3125 C 50.859375 -4.09375 50.359375 -2.484375 49.359375 -1.484375 C 48.367188 -0.492188 46.765625 0 44.546875 0 Z M 44.546875 0 "/></g></g></g><g fill="#7843e6" fill-opacity="1"><g transform="translate(38.593048, 184.759661)"><g><path d="M 44.546875 0 L 18.421875 0 C 16.191406 0 14.578125 -0.492188 13.578125 -1.484375 C 12.585938 -2.484375 12.09375 -4.09375 12.09375 -6.3125 L 12.09375 -119.953125 C 12.09375 -122.171875 12.585938 -123.773438 13.578125 -124.765625 C 14.578125 -125.765625 16.191406 -126.265625 18.421875 -126.265625 L 46.65625 -126.265625 C 48.519531 -126.265625 50.066406 -125.851562 51.296875 -125.03125 C 52.523438 -124.21875 53.664062 -122.878906 54.71875 -121.015625 L 70.5 -92.421875 C 71.082031 -91.367188 71.578125 -90.609375 71.984375 -90.140625 C 72.398438 -89.671875 72.957031 -89.4375 73.65625 -89.4375 L 75.234375 -89.4375 C 75.929688 -89.4375 76.484375 -89.671875 76.890625 -90.140625 C 77.304688 -90.609375 77.804688 -91.367188 78.390625 -92.421875 L 94 -121.015625 C 95.050781 -122.878906 96.191406 -124.21875 97.421875 -125.03125 C 98.648438 -125.851562 100.195312 -126.265625 102.0625 -126.265625 L 130.484375 -126.265625 C 132.703125 -126.265625 134.304688 -125.765625 135.296875 -124.765625 C 136.296875 -123.773438 136.796875 -122.171875 136.796875 -119.953125 L 136.796875 -6.3125 C 136.796875 -4.09375 136.296875 -2.484375 135.296875 -1.484375 C 134.304688 -0.492188 132.703125 0 130.484375 0 L 103.46875 0 C 101.25 0 99.640625 -0.492188 98.640625 -1.484375 C 97.648438 -2.484375 97.15625 -4.09375 97.15625 -6.3125 L 97.15625 -68.046875 L 86.8125 -48.921875 C 85.757812 -46.941406 84.5 -45.507812 83.03125 -44.625 C 81.570312 -43.75 79.734375 -43.3125 77.515625 -43.3125 L 70.5 -43.3125 C 68.28125 -43.3125 66.4375 -43.75 64.96875 -44.625 C 63.507812 -45.507812 62.253906 -46.941406 61.203125 -48.921875 L 50.859375 -68.046875 L 50.859375 -6.3125 C 50.859375 -4.09375 50.359375 -2.484375 49.359375 -1.484375 C 48.367188 -0.492188 46.765625 0 44.546875 0 Z M 44.546875 0 "/></g></g></g><g fill="#7843e6" fill-opacity="1"><g transform="translate(187.491786, 184.759661)"><g><path d="M 44.546875 0 L 18.421875 0 C 16.191406 0 14.578125 -0.492188 13.578125 -1.484375 C 12.585938 -2.484375 12.09375 -4.09375 12.09375 -6.3125 L 12.09375 -119.953125 C 12.09375 -122.171875 12.585938 -123.773438 13.578125 -124.765625 C 14.578125 -125.765625 16.191406 -126.265625 18.421875 -126.265625 L 46.65625 -126.265625 C 48.519531 -126.265625 50.066406 -125.851562 51.296875 -125.03125 C 52.523438 -124.21875 53.664062 -122.878906 54.71875 -121.015625 L 70.5 -92.421875 C 71.082031 -91.367188 71.578125 -90.609375 71.984375 -90.140625 C 72.398438 -89.671875 72.957031 -89.4375 73.65625 -89.4375 L 75.234375 -89.4375 C 75.929688 -89.4375 76.484375 -89.671875 76.890625 -90.140625 C 77.304688 -90.609375 77.804688 -91.367188 78.390625 -92.421875 L 94 -121.015625 C 95.050781 -122.878906 96.191406 -124.21875 97.421875 -125.03125 C 98.648438 -125.851562 100.195312 -126.265625 102.0625 -126.265625 L 130.484375 -126.265625 C 132.703125 -126.265625 134.304688 -125.765625 135.296875 -124.765625 C 136.296875 -123.773438 136.796875 -122.171875 136.796875 -119.953125 L 136.796875 -6.3125 C 136.796875 -4.09375 136.296875 -2.484375 135.296875 -1.484375 C 134.304688 -0.492188 132.703125 0 130.484375 0 L 103.46875 0 C 101.25 0 99.640625 -0.492188 98.640625 -1.484375 C 97.648438 -2.484375 97.15625 -4.09375 97.15625 -6.3125 L 97.15625 -68.046875 L 86.8125 -48.921875 C 85.757812 -46.941406 84.5 -45.507812 83.03125 -44.625 C 81.570312 -43.75 79.734375 -43.3125 77.515625 -43.3125 L 70.5 -43.3125 C 68.28125 -43.3125 66.4375 -43.75 64.96875 -44.625 C 63.507812 -45.507812 62.253906 -46.941406 61.203125 -48.921875 L 50.859375 -68.046875 L 50.859375 -6.3125 C 50.859375 -4.09375 50.359375 -2.484375 49.359375 -1.484375 C 48.367188 -0.492188 46.765625 0 44.546875 0 Z M 44.546875 0 "/></g></g></g><g fill="#ff00ff" fill-opacity="1"><g transform="translate(-2.100311, 320.556811)"><g><path d="M 15.609375 0 C 13.390625 0 11.78125 -0.492188 10.78125 -1.484375 C 9.789062 -2.484375 9.296875 -4.09375 9.296875 -6.3125 L 9.296875 -27.1875 C 9.296875 -29.40625 9.789062 -31.007812 10.78125 -32 C 11.78125 -33 13.390625 -33.5 15.609375 -33.5 L 32.96875 -33.5 L 32.96875 -92.421875 L 15.609375 -92.421875 C 13.390625 -92.421875 11.78125 -92.914062 10.78125 -93.90625 C 9.789062 -94.90625 9.296875 -96.515625 9.296875 -98.734375 L 9.296875 -119.953125 C 9.296875 -122.171875 9.789062 -123.773438 10.78125 -124.765625 C 11.78125 -125.765625 13.390625 -126.265625 15.609375 -126.265625 L 90.3125 -126.265625 C 92.539062 -126.265625 94.148438 -125.765625 95.140625 -124.765625 C 96.128906 -123.773438 96.625 -122.171875 96.625 -119.953125 L 96.625 -98.734375 C 96.625 -96.515625 96.128906 -94.90625 95.140625 -93.90625 C 94.148438 -92.914062 92.539062 -92.421875 90.3125 -92.421875 L 73.3125 -92.421875 L 73.3125 -33.5 L 90.3125 -33.5 C 92.539062 -33.5 94.148438 -33 95.140625 -32 C 96.128906 -31.007812 96.625 -29.40625 96.625 -27.1875 L 96.625 -6.3125 C 96.625 -4.09375 96.128906 -2.484375 95.140625 -1.484375 C 94.148438 -0.492188 92.539062 0 90.3125 0 Z M 15.609375 0 "/></g></g></g><g fill="#ff00ff" fill-opacity="1"><g transform="translate(104.005386, 320.556811)"><g><path d="M 71.734375 0 L 43.3125 0 C 41.09375 0 39.484375 -0.492188 38.484375 -1.484375 C 37.492188 -2.484375 37 -4.09375 37 -6.3125 L 37 -92.421875 L 11.21875 -92.421875 C 9 -92.421875 7.390625 -92.914062 6.390625 -93.90625 C 5.398438 -94.90625 4.90625 -96.515625 4.90625 -98.734375 L 4.90625 -119.953125 C 4.90625 -122.171875 5.398438 -123.773438 6.390625 -124.765625 C 7.390625 -125.765625 9 -126.265625 11.21875 -126.265625 L 103.828125 -126.265625 C 106.046875 -126.265625 107.648438 -125.765625 108.640625 -124.765625 C 109.640625 -123.773438 110.140625 -122.171875 110.140625 -119.953125 L 110.140625 -98.734375 C 110.140625 -96.515625 109.640625 -94.90625 108.640625 -93.90625 C 107.648438 -92.914062 106.046875 -92.421875 103.828125 -92.421875 L 78.046875 -92.421875 L 78.046875 -6.3125 C 78.046875 -4.09375 77.546875 -2.484375 76.546875 -1.484375 C 75.554688 -0.492188 73.953125 0 71.734375 0 Z M 71.734375 0 "/></g></g></g><g fill="#ff00ff" fill-opacity="1"><g transform="translate(219.055542, 320.556811)"><g><path d="M 44.546875 0 L 18.421875 0 C 16.191406 0 14.578125 -0.492188 13.578125 -1.484375 C 12.585938 -2.484375 12.09375 -4.09375 12.09375 -6.3125 L 12.09375 -119.953125 C 12.09375 -122.171875 12.585938 -123.773438 13.578125 -124.765625 C 14.578125 -125.765625 16.191406 -126.265625 18.421875 -126.265625 L 46.65625 -126.265625 C 48.519531 -126.265625 50.066406 -125.851562 51.296875 -125.03125 C 52.523438 -124.21875 53.664062 -122.878906 54.71875 -121.015625 L 70.5 -92.421875 C 71.082031 -91.367188 71.578125 -90.609375 71.984375 -90.140625 C 72.398438 -89.671875 72.957031 -89.4375 73.65625 -89.4375 L 75.234375 -89.4375 C 75.929688 -89.4375 76.484375 -89.671875 76.890625 -90.140625 C 77.304688 -90.609375 77.804688 -91.367188 78.390625 -92.421875 L 94 -121.015625 C 95.050781 -122.878906 96.191406 -124.21875 97.421875 -125.03125 C 98.648438 -125.851562 100.195312 -126.265625 102.0625 -126.265625 L 130.484375 -126.265625 C 132.703125 -126.265625 134.304688 -125.765625 135.296875 -124.765625 C 136.296875 -123.773438 136.796875 -122.171875 136.796875 -119.953125 L 136.796875 -6.3125 C 136.796875 -4.09375 136.296875 -2.484375 135.296875 -1.484375 C 134.304688 -0.492188 132.703125 0 130.484375 0 L 103.46875 0 C 101.25 0 99.640625 -0.492188 98.640625 -1.484375 C 97.648438 -2.484375 97.15625 -4.09375 97.15625 -6.3125 L 97.15625 -68.046875 L 86.8125 -48.921875 C 85.757812 -46.941406 84.5 -45.507812 83.03125 -44.625 C 81.570312 -43.75 79.734375 -43.3125 77.515625 -43.3125 L 70.5 -43.3125 C 68.28125 -43.3125 66.4375 -43.75 64.96875 -44.625 C 63.507812 -45.507812 62.253906 -46.941406 61.203125 -48.921875 L 50.859375 -68.046875 L 50.859375 -6.3125 C 50.859375 -4.09375 50.359375 -2.484375 49.359375 -1.484375 C 48.367188 -0.492188 46.765625 0 44.546875 0 Z M 44.546875 0 "/></g></g></g><g fill="#00ffff" fill-opacity="1"><g transform="translate(7.038631, 312.034615)"><g><path d="M 15.609375 0 C 13.390625 0 11.78125 -0.492188 10.78125 -1.484375 C 9.789062 -2.484375 9.296875 -4.09375 9.296875 -6.3125 L 9.296875 -27.1875 C 9.296875 -29.40625 9.789062 -31.007812 10.78125 -32 C 11.78125 -33 13.390625 -33.5 15.609375 -33.5 L 32.96875 -33.5 L 32.96875 -92.421875 L 15.609375 -92.421875 C 13.390625 -92.421875 11.78125 -92.914062 10.78125 -93.90625 C 9.789062 -94.90625 9.296875 -96.515625 9.296875 -98.734375 L 9.296875 -119.953125 C 9.296875 -122.171875 9.789062 -123.773438 10.78125 -124.765625 C 11.78125 -125.765625 13.390625 -126.265625 15.609375 -126.265625 L 90.3125 -126.265625 C 92.539062 -126.265625 94.148438 -125.765625 95.140625 -124.765625 C 96.128906 -123.773438 96.625 -122.171875 96.625 -119.953125 L 96.625 -98.734375 C 96.625 -96.515625 96.128906 -94.90625 95.140625 -93.90625 C 94.148438 -92.914062 92.539062 -92.421875 90.3125 -92.421875 L 73.3125 -92.421875 L 73.3125 -33.5 L 90.3125 -33.5 C 92.539062 -33.5 94.148438 -33 95.140625 -32 C 96.128906 -31.007812 96.625 -29.40625 96.625 -27.1875 L 96.625 -6.3125 C 96.625 -4.09375 96.128906 -2.484375 95.140625 -1.484375 C 94.148438 -0.492188 92.539062 0 90.3125 0 Z M 15.609375 0 "/></g></g></g><g fill="#00ffff" fill-opacity="1"><g transform="translate(113.144328, 312.034615)"><g><path d="M 71.734375 0 L 43.3125 0 C 41.09375 0 39.484375 -0.492188 38.484375 -1.484375 C 37.492188 -2.484375 37 -4.09375 37 -6.3125 L 37 -92.421875 L 11.21875 -92.421875 C 9 -92.421875 7.390625 -92.914062 6.390625 -93.90625 C 5.398438 -94.90625 4.90625 -96.515625 4.90625 -98.734375 L 4.90625 -119.953125 C 4.90625 -122.171875 5.398438 -123.773438 6.390625 -124.765625 C 7.390625 -125.765625 9 -126.265625 11.21875 -126.265625 L 103.828125 -126.265625 C 106.046875 -126.265625 107.648438 -125.765625 108.640625 -124.765625 C 109.640625 -123.773438 110.140625 -122.171875 110.140625 -119.953125 L 110.140625 -98.734375 C 110.140625 -96.515625 109.640625 -94.90625 108.640625 -93.90625 C 107.648438 -92.914062 106.046875 -92.421875 103.828125 -92.421875 L 78.046875 -92.421875 L 78.046875 -6.3125 C 78.046875 -4.09375 77.546875 -2.484375 76.546875 -1.484375 C 75.554688 -0.492188 73.953125 0 71.734375 0 Z M 71.734375 0 "/></g></g></g><g fill="#00ffff" fill-opacity="1"><g transform="translate(228.194483, 312.034615)"><g><path d="M 44.546875 0 L 18.421875 0 C 16.191406 0 14.578125 -0.492188 13.578125 -1.484375 C 12.585938 -2.484375 12.09375 -4.09375 12.09375 -6.3125 L 12.09375 -119.953125 C 12.09375 -122.171875 12.585938 -123.773438 13.578125 -124.765625 C 14.578125 -125.765625 16.191406 -126.265625 18.421875 -126.265625 L 46.65625 -126.265625 C 48.519531 -126.265625 50.066406 -125.851562 51.296875 -125.03125 C 52.523438 -124.21875 53.664062 -122.878906 54.71875 -121.015625 L 70.5 -92.421875 C 71.082031 -91.367188 71.578125 -90.609375 71.984375 -90.140625 C 72.398438 -89.671875 72.957031 -89.4375 73.65625 -89.4375 L 75.234375 -89.4375 C 75.929688 -89.4375 76.484375 -89.671875 76.890625 -90.140625 C 77.304688 -90.609375 77.804688 -91.367188 78.390625 -92.421875 L 94 -121.015625 C 95.050781 -122.878906 96.191406 -124.21875 97.421875 -125.03125 C 98.648438 -125.851562 100.195312 -126.265625 102.0625 -126.265625 L 130.484375 -126.265625 C 132.703125 -126.265625 134.304688 -125.765625 135.296875 -124.765625 C 136.296875 -123.773438 136.796875 -122.171875 136.796875 -119.953125 L 136.796875 -6.3125 C 136.796875 -4.09375 136.296875 -2.484375 135.296875 -1.484375 C 134.304688 -0.492188 132.703125 0 130.484375 0 L 103.46875 0 C 101.25 0 99.640625 -0.492188 98.640625 -1.484375 C 97.648438 -2.484375 97.15625 -4.09375 97.15625 -6.3125 L 97.15625 -68.046875 L 86.8125 -48.921875 C 85.757812 -46.941406 84.5 -45.507812 83.03125 -44.625 C 81.570312 -43.75 79.734375 -43.3125 77.515625 -43.3125 L 70.5 -43.3125 C 68.28125 -43.3125 66.4375 -43.75 64.96875 -44.625 C 63.507812 -45.507812 62.253906 -46.941406 61.203125 -48.921875 L 50.859375 -68.046875 L 50.859375 -6.3125 C 50.859375 -4.09375 50.359375 -2.484375 49.359375 -1.484375 C 48.367188 -0.492188 46.765625 0 44.546875 0 Z M 44.546875 0 "/></g></g></g><g fill="#7843e6" fill-opacity="1"><g transform="translate(2.46916, 316.295714)"><g><path d="M 15.609375 0 C 13.390625 0 11.78125 -0.492188 10.78125 -1.484375 C 9.789062 -2.484375 9.296875 -4.09375 9.296875 -6.3125 L 9.296875 -27.1875 C 9.296875 -29.40625 9.789062 -31.007812 10.78125 -32 C 11.78125 -33 13.390625 -33.5 15.609375 -33.5 L 32.96875 -33.5 L 32.96875 -92.421875 L 15.609375 -92.421875 C 13.390625 -92.421875 11.78125 -92.914062 10.78125 -93.90625 C 9.789062 -94.90625 9.296875 -96.515625 9.296875 -98.734375 L 9.296875 -119.953125 C 9.296875 -122.171875 9.789062 -123.773438 10.78125 -124.765625 C 11.78125 -125.765625 13.390625 -126.265625 15.609375 -126.265625 L 90.3125 -126.265625 C 92.539062 -126.265625 94.148438 -125.765625 95.140625 -124.765625 C 96.128906 -123.773438 96.625 -122.171875 96.625 -119.953125 L 96.625 -98.734375 C 96.625 -96.515625 96.128906 -94.90625 95.140625 -93.90625 C 94.148438 -92.914062 92.539062 -92.421875 90.3125 -92.421875 L 73.3125 -92.421875 L 73.3125 -33.5 L 90.3125 -33.5 C 92.539062 -33.5 94.148438 -33 95.140625 -32 C 96.128906 -31.007812 96.625 -29.40625 96.625 -27.1875 L 96.625 -6.3125 C 96.625 -4.09375 96.128906 -2.484375 95.140625 -1.484375 C 94.148438 -0.492188 92.539062 0 90.3125 0 Z M 15.609375 0 "/></g></g></g><g fill="#7843e6" fill-opacity="1"><g transform="translate(108.574857, 316.295714)"><g><path d="M 71.734375 0 L 43.3125 0 C 41.09375 0 39.484375 -0.492188 38.484375 -1.484375 C 37.492188 -2.484375 37 -4.09375 37 -6.3125 L 37 -92.421875 L 11.21875 -92.421875 C 9 -92.421875 7.390625 -92.914062 6.390625 -93.90625 C 5.398438 -94.90625 4.90625 -96.515625 4.90625 -98.734375 L 4.90625 -119.953125 C 4.90625 -122.171875 5.398438 -123.773438 6.390625 -124.765625 C 7.390625 -125.765625 9 -126.265625 11.21875 -126.265625 L 103.828125 -126.265625 C 106.046875 -126.265625 107.648438 -125.765625 108.640625 -124.765625 C 109.640625 -123.773438 110.140625 -122.171875 110.140625 -119.953125 L 110.140625 -98.734375 C 110.140625 -96.515625 109.640625 -94.90625 108.640625 -93.90625 C 107.648438 -92.914062 106.046875 -92.421875 103.828125 -92.421875 L 78.046875 -92.421875 L 78.046875 -6.3125 C 78.046875 -4.09375 77.546875 -2.484375 76.546875 -1.484375 C 75.554688 -0.492188 73.953125 0 71.734375 0 Z M 71.734375 0 "/></g></g></g><g fill="#7843e6" fill-opacity="1"><g transform="translate(223.625013, 316.295714)"><g><path d="M 44.546875 0 L 18.421875 0 C 16.191406 0 14.578125 -0.492188 13.578125 -1.484375 C 12.585938 -2.484375 12.09375 -4.09375 12.09375 -6.3125 L 12.09375 -119.953125 C 12.09375 -122.171875 12.585938 -123.773438 13.578125 -124.765625 C 14.578125 -125.765625 16.191406 -126.265625 18.421875 -126.265625 L 46.65625 -126.265625 C 48.519531 -126.265625 50.066406 -125.851562 51.296875 -125.03125 C 52.523438 -124.21875 53.664062 -122.878906 54.71875 -121.015625 L 70.5 -92.421875 C 71.082031 -91.367188 71.578125 -90.609375 71.984375 -90.140625 C 72.398438 -89.671875 72.957031 -89.4375 73.65625 -89.4375 L 75.234375 -89.4375 C 75.929688 -89.4375 76.484375 -89.671875 76.890625 -90.140625 C 77.304688 -90.609375 77.804688 -91.367188 78.390625 -92.421875 L 94 -121.015625 C 95.050781 -122.878906 96.191406 -124.21875 97.421875 -125.03125 C 98.648438 -125.851562 100.195312 -126.265625 102.0625 -126.265625 L 130.484375 -126.265625 C 132.703125 -126.265625 134.304688 -125.765625 135.296875 -124.765625 C 136.296875 -123.773438 136.796875 -122.171875 136.796875 -119.953125 L 136.796875 -6.3125 C 136.796875 -4.09375 136.296875 -2.484375 135.296875 -1.484375 C 134.304688 -0.492188 132.703125 0 130.484375 0 L 103.46875 0 C 101.25 0 99.640625 -0.492188 98.640625 -1.484375 C 97.648438 -2.484375 97.15625 -4.09375 97.15625 -6.3125 L 97.15625 -68.046875 L 86.8125 -48.921875 C 85.757812 -46.941406 84.5 -45.507812 83.03125 -44.625 C 81.570312 -43.75 79.734375 -43.3125 77.515625 -43.3125 L 70.5 -43.3125 C 68.28125 -43.3125 66.4375 -43.75 64.96875 -44.625 C 63.507812 -45.507812 62.253906 -46.941406 61.203125 -48.921875 L 50.859375 -68.046875 L 50.859375 -6.3125 C 50.859375 -4.09375 50.359375 -2.484375 49.359375 -1.484375 C 48.367188 -0.492188 46.765625 0 44.546875 0 Z M 44.546875 0 "/></g></g></g></svg>